# Blender v2.83.1 OBJ File: ''
# www.blender.org
mtllib wall_V2.mtl
o Cube.001
v 0.125000 1.166666 2.166667
v 0.125000 1.749999 2.166667
v 0.125000 1.749999 3.250000
v 0.125000 1.166664 3.250000
v 0.083333 1.749999 3.250000
v 0.125000 1.750000 -2.166666
v 0.125000 1.750001 -3.250000
v 0.083333 1.750001 -3.250000
v -0.125000 -1.166667 2.166667
v -0.125000 -1.750001 2.166666
v -0.125000 -1.750001 3.250000
v -0.125000 -1.166669 3.250000
v 0.125000 -1.750001 2.166667
v 0.125000 -1.750001 3.250000
v 0.083333 -1.750001 3.250000
v 0.125000 -1.166664 -3.250000
v 0.125000 -1.749997 -3.250000
v 0.083333 -1.749997 -3.250000
v -0.125000 -1.166664 -3.250000
v -0.083333 -1.749997 -3.250000
v -0.125000 -1.749997 -3.250000
v -0.041667 -1.749997 -3.250000
v 0.000000 -1.749997 -3.250000
v 0.041667 -1.749997 -3.250000
v -0.125000 1.750001 -3.250000
v -0.083333 1.750001 -3.250000
v -0.125000 1.166667 -3.250000
v -0.125000 0.583335 -3.250000
v -0.125000 0.000002 -3.250000
v -0.125000 -0.583331 -3.250000
v -0.041667 1.750001 -3.250000
v 0.000000 1.750001 -3.250000
v 0.041667 1.750001 -3.250000
v 0.125000 1.166669 -3.250000
v 0.125000 0.583336 -3.250000
v 0.125000 0.000002 -3.250000
v 0.125000 -0.583331 -3.250000
v -0.083333 -1.750001 3.250000
v -0.041667 -1.750001 3.250000
v 0.000000 -1.750001 3.250000
v 0.041667 -1.750001 3.250000
v -0.125000 -1.749999 -2.166667
v -0.125000 -1.749999 -1.083334
v -0.125000 -1.750000 -0.000000
v -0.125000 -1.750000 1.083333
v 0.125000 -1.749999 -2.166667
v 0.125000 -1.749999 -1.083333
v 0.125000 -1.750000 -0.000000
v 0.125000 -1.750000 1.083333
v -0.125000 1.749999 2.166667
v -0.125000 1.166666 2.166667
v -0.125000 1.166666 3.250000
v -0.125000 1.749999 3.250000
v -0.125000 0.583333 2.166667
v -0.125000 0.583331 3.250000
v -0.125000 -0.000001 2.166667
v -0.125000 -0.000002 3.250000
v -0.125000 -0.583334 2.166667
v -0.125000 -0.583336 3.250000
v -0.125000 1.166667 -2.166666
v -0.125000 1.750000 -2.166667
v -0.125000 1.166667 -1.083333
v -0.125000 1.750000 -1.083333
v -0.125000 1.166667 0.000000
v -0.125000 1.750000 0.000000
v -0.125000 1.166666 1.083334
v -0.125000 1.749999 1.083333
v -0.125000 0.583334 -2.166667
v -0.125000 0.583334 -1.083333
v -0.125000 0.583333 0.000000
v -0.125000 0.583333 1.083334
v -0.125000 0.000001 -2.166667
v -0.125000 0.000000 -1.083333
v -0.125000 0.000000 0.000000
v -0.125000 -0.000000 1.083333
v -0.125000 -0.583332 -2.166667
v -0.125000 -0.583333 -1.083333
v -0.125000 -0.583333 -0.000000
v -0.125000 -0.583334 1.083333
v -0.125000 -1.166665 -2.166667
v -0.125000 -1.166666 -1.083333
v -0.125000 -1.166667 -0.000000
v -0.125000 -1.166667 1.083333
v -0.083333 1.749999 3.250000
v -0.041667 1.749999 3.250000
v 0.000000 1.749999 3.250000
v 0.041667 1.749999 3.250000
v 0.125000 1.750000 1.083334
v 0.125000 1.750000 0.000000
v 0.125000 1.750000 -1.083333
v 0.125000 -1.166669 3.250000
v 0.125000 -0.583336 3.250000
v 0.125000 -0.000002 3.250000
v 0.125000 0.583331 3.250000
v 0.125000 -1.166668 2.166667
v 0.125000 -0.583334 2.166667
v 0.125000 -0.000001 2.166667
v 0.125000 0.583332 2.166667
v 0.125000 -1.166666 -2.166667
v 0.125000 -1.166666 -1.083333
v 0.125000 -1.166667 -0.000000
v 0.125000 -1.166667 1.083333
v 0.125000 -0.583332 -2.166667
v 0.125000 -0.583333 -1.083333
v 0.125000 -0.583333 -0.000000
v 0.125000 -0.583334 1.083333
v 0.125000 0.000001 -2.166667
v 0.125000 0.000000 -1.083333
v 0.125000 0.000000 0.000000
v 0.125000 -0.000000 1.083333
v 0.125000 0.583334 -2.166667
v 0.125000 0.583334 -1.083333
v 0.125000 0.583333 0.000000
v 0.125000 0.583333 1.083334
v 0.125000 1.166667 -2.166666
v 0.125000 1.166667 -1.083333
v 0.125000 1.166667 0.000000
v 0.125000 1.166666 1.083334
vt 0.782935 0.274954
vt 0.853222 0.274997
vt 0.853143 0.405530
vt 0.782856 0.405487
vt 0.382661 0.000743
vt 0.452948 0.000743
vt 0.452948 0.131276
vt 0.382661 0.131276
vt 0.063961 0.281891
vt 0.063961 0.211603
vt 0.063961 0.141317
vt 0.063961 0.071030
vt 0.063961 0.000743
vt 0.068981 0.000743
vt 0.074002 0.000743
vt 0.079022 0.000743
vt 0.084043 0.000743
vt 0.089063 0.000743
vt 0.094084 0.000743
vt 0.094084 0.071030
vt 0.094084 0.141317
vt 0.094084 0.211603
vt 0.094084 0.281890
vt 0.094084 0.352177
vt 0.094084 0.422464
vt 0.089063 0.422464
vt 0.084043 0.422464
vt 0.079022 0.422464
vt 0.074002 0.422464
vt 0.068981 0.422464
vt 0.063961 0.422464
vt 0.063961 0.352177
vt 0.030866 0.653406
vt 0.030866 0.783939
vt 0.025845 0.783939
vt 0.020825 0.783939
vt 0.015804 0.783939
vt 0.010784 0.783939
vt 0.005763 0.783939
vt 0.000743 0.783939
vt 0.000743 0.653406
vt 0.000743 0.522873
vt 0.000743 0.392341
vt 0.000743 0.261808
vt 0.000743 0.131275
vt 0.000743 0.000743
vt 0.005764 0.000743
vt 0.010784 0.000743
vt 0.015804 0.000743
vt 0.020825 0.000743
vt 0.025845 0.000743
vt 0.030866 0.000743
vt 0.030866 0.131275
vt 0.030866 0.261808
vt 0.030866 0.392341
vt 0.030866 0.522873
vt 0.429893 0.947566
vt 0.359606 0.947566
vt 0.359606 0.817034
vt 0.429893 0.817034
vt 0.524720 0.131276
vt 0.454434 0.131276
vt 0.454433 0.000743
vt 0.524720 0.000743
vt 0.491625 0.540344
vt 0.561912 0.540344
vt 0.561912 0.670877
vt 0.491625 0.670877
vt 0.633685 0.670877
vt 0.563398 0.670877
vt 0.563398 0.540344
vt 0.633685 0.540344
vt 0.920776 0.670877
vt 0.850489 0.670877
vt 0.850489 0.540345
vt 0.920776 0.540345
vt 0.200418 0.346577
vt 0.270704 0.346738
vt 0.270404 0.477271
vt 0.200117 0.477109
vt 0.740039 0.131276
vt 0.669752 0.131276
vt 0.669752 0.000743
vt 0.740039 0.000743
vt 0.645211 0.947566
vt 0.574924 0.947566
vt 0.574924 0.817034
vt 0.645211 0.817034
vt 0.196514 0.742650
vt 0.126227 0.742650
vt 0.126227 0.612117
vt 0.196514 0.612117
vt 0.849003 0.670877
vt 0.778716 0.670877
vt 0.778716 0.540345
vt 0.849003 0.540345
vt 0.850793 0.716665
vt 0.921080 0.716733
vt 0.920953 0.847266
vt 0.850666 0.847197
vt 0.850489 0.408326
vt 0.920776 0.408326
vt 0.920776 0.538859
vt 0.850489 0.538859
vt 0.490140 0.610631
vt 0.419853 0.610631
vt 0.419853 0.480099
vt 0.490140 0.480099
vt 0.525414 0.138038
vt 0.595701 0.138092
vt 0.595601 0.268625
vt 0.525314 0.268571
vt 0.142802 0.947566
vt 0.072516 0.947566
vt 0.072516 0.817034
vt 0.142802 0.817034
vt 0.716984 0.947566
vt 0.646697 0.947566
vt 0.646697 0.817034
vt 0.716984 0.817034
vt 0.561640 0.404197
vt 0.491354 0.404197
vt 0.491354 0.273664
vt 0.561640 0.273664
vt 0.668069 0.268166
vt 0.597783 0.268040
vt 0.598018 0.137507
vt 0.668304 0.137634
vt 0.719760 0.817871
vt 0.790047 0.817871
vt 0.790047 0.948403
vt 0.719760 0.948404
vt 0.167342 0.000743
vt 0.237629 0.000743
vt 0.237629 0.131276
vt 0.167342 0.131276
vt 0.216061 0.817034
vt 0.286348 0.817034
vt 0.286348 0.947566
vt 0.216061 0.947566
vt 0.741524 0.000743
vt 0.811811 0.000743
vt 0.811811 0.131276
vt 0.741524 0.131276
vt 0.287834 0.817034
vt 0.358121 0.817034
vt 0.358121 0.947566
vt 0.287834 0.947566
vt 0.633685 0.538859
vt 0.563398 0.538859
vt 0.563398 0.408326
vt 0.633685 0.408326
vt 0.346499 0.346350
vt 0.416785 0.346221
vt 0.417025 0.476753
vt 0.346738 0.476882
vt 0.924005 0.716179
vt 0.994292 0.716246
vt 0.994169 0.846778
vt 0.923882 0.846712
vt 0.742804 0.137528
vt 0.813091 0.137528
vt 0.813091 0.268061
vt 0.742804 0.268061
vt 0.634038 0.404326
vt 0.563751 0.404326
vt 0.563751 0.273793
vt 0.634038 0.273793
vt 0.707296 0.273793
vt 0.777583 0.273793
vt 0.777583 0.404326
vt 0.707296 0.404326
vt 0.854561 0.274441
vt 0.924848 0.274486
vt 0.924763 0.405019
vt 0.854476 0.404974
vt 0.381175 0.131276
vt 0.310888 0.131276
vt 0.310888 0.000743
vt 0.381175 0.000743
vt 0.239115 0.000743
vt 0.309402 0.000743
vt 0.309402 0.131276
vt 0.239115 0.131276
vt 0.956636 0.268061
vt 0.886349 0.268061
vt 0.886349 0.137528
vt 0.956636 0.137528
vt 0.992549 0.670877
vt 0.922262 0.670877
vt 0.922262 0.540345
vt 0.992549 0.540345
vt 0.418271 0.346218
vt 0.488558 0.346089
vt 0.488797 0.476622
vt 0.418510 0.476751
vt 0.653406 0.785425
vt 0.783939 0.785425
vt 0.783939 0.790445
vt 0.783939 0.795466
vt 0.783939 0.800486
vt 0.783939 0.805507
vt 0.783939 0.810527
vt 0.783939 0.815548
vt 0.653406 0.815548
vt 0.522873 0.815548
vt 0.392341 0.815548
vt 0.261808 0.815548
vt 0.131275 0.815548
vt 0.000743 0.815548
vt 0.000743 0.810527
vt 0.000743 0.805507
vt 0.000743 0.800486
vt 0.000743 0.795466
vt 0.000743 0.790445
vt 0.000743 0.785425
vt 0.131275 0.785425
vt 0.261808 0.785425
vt 0.392341 0.785425
vt 0.522873 0.785425
vt 0.062475 0.352177
vt 0.062475 0.422464
vt 0.057454 0.422464
vt 0.052434 0.422464
vt 0.047413 0.422464
vt 0.042393 0.422464
vt 0.037372 0.422464
vt 0.032352 0.422464
vt 0.032352 0.352177
vt 0.032352 0.281890
vt 0.032352 0.211604
vt 0.032352 0.141317
vt 0.032352 0.071030
vt 0.032352 0.000743
vt 0.037372 0.000743
vt 0.042393 0.000743
vt 0.047413 0.000743
vt 0.052434 0.000743
vt 0.057454 0.000743
vt 0.062475 0.000743
vt 0.062475 0.071030
vt 0.062475 0.141317
vt 0.062475 0.211604
vt 0.062475 0.281890
vt 0.947671 0.993823
vt 0.877384 0.993823
vt 0.877384 0.863290
vt 0.947671 0.863290
vt 0.741318 0.268061
vt 0.671031 0.268061
vt 0.671031 0.137528
vt 0.741318 0.137528
vt 0.348080 0.480099
vt 0.418367 0.480099
vt 0.418367 0.610631
vt 0.348080 0.610631
vt 0.573439 0.947566
vt 0.503152 0.947566
vt 0.503152 0.817034
vt 0.573439 0.817034
vt 0.705810 0.404326
vt 0.635524 0.404326
vt 0.635524 0.273793
vt 0.705811 0.273793
vt 0.805612 0.863290
vt 0.875898 0.863290
vt 0.875898 0.993823
vt 0.805612 0.993823
vt 0.926830 0.275302
vt 0.997117 0.275266
vt 0.997184 0.405799
vt 0.926897 0.405835
vt 0.000743 0.817034
vt 0.071030 0.817034
vt 0.071030 0.947566
vt 0.000743 0.947566
vt 0.214575 0.947566
vt 0.144288 0.947566
vt 0.144288 0.817034
vt 0.214575 0.817034
vt 0.269513 0.742650
vt 0.199226 0.742650
vt 0.199226 0.612117
vt 0.269513 0.612117
vt 0.597979 0.000743
vt 0.668266 0.000743
vt 0.668266 0.131276
vt 0.597979 0.131276
vt 0.053863 0.612404
vt 0.124149 0.612268
vt 0.124402 0.742800
vt 0.054115 0.742936
vt 0.095570 0.480099
vt 0.165856 0.480099
vt 0.165856 0.610631
vt 0.095569 0.610631
vt 0.705458 0.538859
vt 0.635171 0.538859
vt 0.635171 0.408326
vt 0.705458 0.408326
vt 0.128645 0.346411
vt 0.198932 0.346573
vt 0.198631 0.477106
vt 0.128344 0.476944
vt 0.501666 0.947566
vt 0.431379 0.947566
vt 0.431379 0.817034
vt 0.501666 0.817034
vt 0.345838 0.612117
vt 0.416124 0.612117
vt 0.416124 0.742650
vt 0.345838 0.742650
vt 0.922262 0.408326
vt 0.992549 0.408326
vt 0.992549 0.538859
vt 0.922262 0.538859
vt 0.239115 0.480099
vt 0.309402 0.480099
vt 0.309402 0.610631
vt 0.239115 0.610631
vt 0.165856 0.263294
vt 0.095569 0.263294
vt 0.095570 0.132762
vt 0.165856 0.132762
vt 0.488960 0.742650
vt 0.418673 0.742650
vt 0.418673 0.612117
vt 0.488960 0.612117
vt 0.274726 0.346481
vt 0.345013 0.346352
vt 0.345252 0.476885
vt 0.274965 0.477014
vt 0.705458 0.670877
vt 0.635171 0.670877
vt 0.635171 0.540344
vt 0.705458 0.540344
vt 0.777231 0.538859
vt 0.706944 0.538859
vt 0.706944 0.408326
vt 0.777231 0.408326
vt 0.814576 0.137528
vt 0.884863 0.137528
vt 0.884863 0.268061
vt 0.814576 0.268061
vt 0.777230 0.670877
vt 0.706944 0.670877
vt 0.706944 0.540344
vt 0.777230 0.540345
vt 0.778716 0.408326
vt 0.849003 0.408326
vt 0.849003 0.538859
vt 0.778716 0.538859
vt 0.491625 0.408326
vt 0.561912 0.408326
vt 0.561912 0.538859
vt 0.491625 0.538859
vt 0.165856 0.131276
vt 0.095569 0.131276
vt 0.095570 0.000743
vt 0.165856 0.000743
vt 0.526206 0.000743
vt 0.596493 0.000743
vt 0.596493 0.131276
vt 0.526206 0.131276
vt 0.272225 0.612117
vt 0.342512 0.612117
vt 0.342512 0.742650
vt 0.272225 0.742650
vt 0.883584 0.131276
vt 0.813297 0.131276
vt 0.813297 0.000743
vt 0.883584 0.000743
vt 0.885070 0.000743
vt 0.955357 0.000743
vt 0.955357 0.131276
vt 0.885070 0.131276
vt 0.453423 0.137592
vt 0.523710 0.137565
vt 0.523760 0.268098
vt 0.453473 0.268125
vt 0.237629 0.610631
vt 0.167342 0.610631
vt 0.167342 0.480099
vt 0.237629 0.480099
vn 1.0000 0.0000 0.0000
vn -1.0000 0.0000 0.0000
vn 0.0000 0.0000 -1.0000
vn 0.0000 -1.0000 -0.0000
vn -0.0000 1.0000 0.0000
vn 0.0000 -0.0000 1.0000
usemtl Material.001
s 1
f 1/1/1 2/2/1 3/3/1 4/4/1
f 9/5/2 10/6/2 11/7/2 12/8/2
f 35/9/3 36/10/3 37/11/3 16/12/3 17/13/3 18/14/3 24/15/3 23/16/3 22/17/3 20/18/3 21/19/3 19/20/3 30/21/3 29/22/3 28/23/3 27/24/3 25/25/3 26/26/3 31/27/3 32/28/3 33/29/3 8/30/3 7/31/3 34/32/3
f 13/33/4 14/34/4 15/35/4 41/36/4 40/37/4 39/38/4 38/39/4 11/40/4 10/41/4 45/42/4 44/43/4 43/44/4 42/45/4 21/46/4 20/47/4 22/48/4 23/49/4 24/50/4 18/51/4 17/52/4 46/53/4 47/54/4 48/55/4 49/56/4
f 50/57/2 51/58/2 52/59/2 53/60/2
f 51/61/2 54/62/2 55/63/2 52/64/2
f 54/65/2 56/66/2 57/67/2 55/68/2
f 56/69/2 58/70/2 59/71/2 57/72/2
f 58/73/2 9/74/2 12/75/2 59/76/2
f 25/77/2 27/78/2 60/79/2 61/80/2
f 61/81/2 60/82/2 62/83/2 63/84/2
f 63/85/2 62/86/2 64/87/2 65/88/2
f 65/89/2 64/90/2 66/91/2 67/92/2
f 67/93/2 66/94/2 51/95/2 50/96/2
f 27/97/2 28/98/2 68/99/2 60/100/2
f 60/101/2 68/102/2 69/103/2 62/104/2
f 62/105/2 69/106/2 70/107/2 64/108/2
f 64/109/2 70/110/2 71/111/2 66/112/2
f 66/113/2 71/114/2 54/115/2 51/116/2
f 28/117/2 29/118/2 72/119/2 68/120/2
f 68/121/2 72/122/2 73/123/2 69/124/2
f 69/125/2 73/126/2 74/127/2 70/128/2
f 70/129/2 74/130/2 75/131/2 71/132/2
f 71/133/2 75/134/2 56/135/2 54/136/2
f 29/137/2 30/138/2 76/139/2 72/140/2
f 72/141/2 76/142/2 77/143/2 73/144/2
f 73/145/2 77/146/2 78/147/2 74/148/2
f 74/149/2 78/150/2 79/151/2 75/152/2
f 75/153/2 79/154/2 58/155/2 56/156/2
f 30/157/2 19/158/2 80/159/2 76/160/2
f 76/161/2 80/162/2 81/163/2 77/164/2
f 77/165/2 81/166/2 82/167/2 78/168/2
f 78/169/2 82/170/2 83/171/2 79/172/2
f 79/173/2 83/174/2 9/175/2 58/176/2
f 19/177/2 21/178/2 42/179/2 80/180/2
f 80/181/2 42/182/2 43/183/2 81/184/2
f 81/185/2 43/186/2 44/187/2 82/188/2
f 82/189/2 44/190/2 45/191/2 83/192/2
f 83/193/2 45/194/2 10/195/2 9/196/2
f 6/197/5 7/198/5 8/199/5 33/200/5 32/201/5 31/202/5 26/203/5 25/204/5 61/205/5 63/206/5 65/207/5 67/208/5 50/209/5 53/210/5 84/211/5 85/212/5 86/213/5 87/214/5 5/215/5 3/216/5 2/217/5 88/218/5 89/219/5 90/220/5
f 4/221/6 3/222/6 5/223/6 87/224/6 86/225/6 85/226/6 84/227/6 53/228/6 52/229/6 55/230/6 57/231/6 59/232/6 12/233/6 11/234/6 38/235/6 39/236/6 40/237/6 41/238/6 15/239/6 14/240/6 91/241/6 92/242/6 93/243/6 94/244/6
f 13/245/1 95/246/1 91/247/1 14/248/1
f 95/249/1 96/250/1 92/251/1 91/252/1
f 96/253/1 97/254/1 93/255/1 92/256/1
f 97/257/1 98/258/1 94/259/1 93/260/1
f 98/261/1 1/262/1 4/263/1 94/264/1
f 17/265/1 16/266/1 99/267/1 46/268/1
f 46/269/1 99/270/1 100/271/1 47/272/1
f 47/273/1 100/274/1 101/275/1 48/276/1
f 48/277/1 101/278/1 102/279/1 49/280/1
f 49/281/1 102/282/1 95/283/1 13/284/1
f 16/285/1 37/286/1 103/287/1 99/288/1
f 99/289/1 103/290/1 104/291/1 100/292/1
f 100/293/1 104/294/1 105/295/1 101/296/1
f 101/297/1 105/298/1 106/299/1 102/300/1
f 102/301/1 106/302/1 96/303/1 95/304/1
f 37/305/1 36/306/1 107/307/1 103/308/1
f 103/309/1 107/310/1 108/311/1 104/312/1
f 104/313/1 108/314/1 109/315/1 105/316/1
f 105/317/1 109/318/1 110/319/1 106/320/1
f 106/321/1 110/322/1 97/323/1 96/324/1
f 36/325/1 35/326/1 111/327/1 107/328/1
f 107/329/1 111/330/1 112/331/1 108/332/1
f 108/333/1 112/334/1 113/335/1 109/336/1
f 109/337/1 113/338/1 114/339/1 110/340/1
f 110/341/1 114/342/1 98/343/1 97/344/1
f 35/345/1 34/346/1 115/347/1 111/348/1
f 111/349/1 115/350/1 116/351/1 112/352/1
f 112/353/1 116/354/1 117/355/1 113/356/1
f 113/357/1 117/358/1 118/359/1 114/360/1
f 114/361/1 118/362/1 1/363/1 98/364/1
f 34/365/1 7/366/1 6/367/1 115/368/1
f 115/369/1 6/370/1 90/371/1 116/372/1
f 116/373/1 90/374/1 89/375/1 117/376/1
f 117/377/1 89/378/1 88/379/1 118/380/1
f 118/381/1 88/382/1 2/383/1 1/384/1
