# Blender v2.83.0 OBJ File: ''
# www.blender.org
mtllib boton_pequeño.mtl
o Cube_Cube.004
v -0.025000 -0.030969 0.037865
v 0.025000 0.030969 0.037865
v -0.025000 0.030969 0.037865
v 0.025000 -0.030969 0.037865
v -0.025000 0.030969 -0.039668
v 0.025000 -0.030969 -0.039668
v -0.025000 -0.030969 -0.039668
v 0.025000 0.030969 -0.039668
v 0.025000 0.018582 -0.080238
v -0.025000 0.018582 0.082041
v 0.025000 0.018582 0.082041
v -0.025000 0.018582 -0.080238
v 0.025000 -0.018582 -0.080238
v 0.025000 -0.018582 0.082041
v -0.025000 -0.018582 -0.080238
v -0.025000 -0.018582 0.082041
vt 0.499508 0.345692
vt 0.276750 0.345692
vt 0.276750 0.000267
vt 0.499508 0.000267
vt 0.499508 0.346226
vt 0.499508 0.691652
vt 0.276750 0.691652
vt 0.276750 0.346226
vt 0.888904 0.427964
vt 0.723335 0.427964
vt 0.723335 0.205205
vt 0.888904 0.205205
vt 0.888904 0.651256
vt 0.723335 0.651256
vt 0.723335 0.428497
vt 0.888904 0.428497
vt 0.927739 0.000267
vt 0.927739 0.189251
vt 0.704980 0.189251
vt 0.704980 0.000267
vt 0.276216 0.542504
vt 0.221026 0.723250
vt 0.055457 0.723250
vt 0.000267 0.542504
vt 0.000267 0.197079
vt 0.055457 0.000267
vt 0.221026 0.000267
vt 0.276216 0.197079
vt 0.722801 0.223560
vt 0.722801 0.427964
vt 0.500042 0.427964
vt 0.500042 0.223560
vt 0.500042 0.428498
vt 0.722801 0.428497
vt 0.722801 0.617482
vt 0.500042 0.617482
vt 0.704446 0.000267
vt 0.704446 0.223026
vt 0.500042 0.223026
vt 0.500042 0.000267
vt 0.181013 0.723784
vt 0.526438 0.723784
vt 0.723250 0.778974
vt 0.723250 0.944543
vt 0.526438 0.999733
vt 0.181013 0.999733
vt 0.000267 0.944543
vt 0.000267 0.778974
vn 0.0000 -1.0000 0.0000
vn 0.0000 1.0000 0.0000
vn 0.0000 0.0000 -1.0000
vn 0.0000 0.0000 1.0000
vn 0.0000 0.9564 -0.2920
vn 1.0000 0.0000 0.0000
vn 0.0000 -0.9629 0.2700
vn 0.0000 -0.9564 -0.2920
vn 0.0000 0.9629 0.2700
vn -1.0000 0.0000 0.0000
usemtl Material.004
s off
f 7/1/1 6/2/1 4/3/1 1/4/1
f 5/5/2 3/6/2 2/7/2 8/8/2
f 15/9/3 12/10/3 9/11/3 13/12/3
f 14/13/4 11/14/4 10/15/4 16/16/4
f 8/17/5 9/18/5 12/19/5 5/20/5
f 6/21/6 13/22/6 9/23/6 8/24/6 2/25/6 11/26/6 14/27/6 4/28/6
f 16/29/7 1/30/7 4/31/7 14/32/7
f 15/33/8 13/34/8 6/35/8 7/36/8
f 10/37/9 11/38/9 2/39/9 3/40/9
f 7/41/10 1/42/10 16/43/10 10/44/10 3/45/10 5/46/10 12/47/10 15/48/10
