# File produced by Open Asset Import Library (http://www.assimp.sf.net)
# (assimp v3.1.206520482)

mtllib Untitled.mtl

# 16 vertex positions
v -0.05 -0.5 0.136667
v -0.05 -0.5 -0.15
v 0.05 -0.5 -0.15
v 0.05 -0.5 0.136667
v 0.05 0.5 -0.15
v -0.05 0.5 -0.15
v -0.05 0.5 0.136667
v 0.05 0.5 0.136667
v 0.05 -0.3 -0.3
v -0.05 -0.3 -0.3
v -0.05 0.3 -0.3
v 0.05 0.3 -0.3
v -0.05 -0.3 0.3
v 0.05 -0.3 0.3
v 0.05 0.3 0.3
v -0.05 0.3 0.3

# 48 UV coordinates
vt 0.681799 0.922952 0
vt 0.461592 0.922952 0
vt 0.461592 0.846136 0
vt 0.681799 0.846136 0
vt 0.999768 0.220438 0
vt 0.922952 0.220438 0
vt 0.922952 0.000232 0
vt 0.999768 0.000232 0
vt 0.000232 0.845673 0
vt 0.000232 0.768857 0
vt 0.461129 0.768857 0
vt 0.461129 0.845673 0
vt 0.000232 0.922952 0
vt 0.000232 0.846136 0
vt 0.461129 0.846136 0
vt 0.461129 0.922952 0
vt 0.92973 0.960897 0
vt 0.852914 0.960897 0
vt 0.852914 0.768857 0
vt 0.92973 0.768857 0
vt 0.587058 0.000232 0
vt 0.807265 0.000232 0
vt 0.922489 0.153864 0
vt 0.922489 0.614761 0
vt 0.807265 0.768393 0
vt 0.587058 0.768393 0
vt 0.461592 0.614761 0
vt 0.461592 0.153864 0
vt 0.922952 0.220901 0
vt 0.999768 0.220901 0
vt 0.999768 0.419256 0
vt 0.922952 0.419256 0
vt 0.66041 0.768857 0
vt 0.852451 0.768857 0
vt 0.852451 0.845673 0
vt 0.66041 0.845673 0
vt 0.461592 0.768857 0
vt 0.659947 0.768857 0
vt 0.659947 0.845673 0
vt 0.461592 0.845673 0
vt 0.000232 0.153864 0
vt 0.115456 0.000232 0
vt 0.335662 0.000232 0
vt 0.461129 0.153864 0
vt 0.461129 0.614761 0
vt 0.335662 0.768393 0
vt 0.115456 0.768393 0
vt 0.000232 0.614761 0

# 10 vertex normals
vn 0 -1 0
vn 0 1 0
vn 0 0 -1
vn 0 0 1
vn 0 0.6 -0.8
vn 1 -0 0
vn 0 -0.6325 0.7745
vn 0 -0.6 -0.8
vn 0 0.6325 0.7745
vn -1 -0 0

# Mesh 'Cube_Cube' with 28 faces
g Cube_Cube
usemtl Material
f 1/1/1 2/2/1 3/3/1
f 3/3/1 4/4/1 1/1/1
f 5/5/2 6/6/2 7/7/2
f 7/7/2 8/8/2 5/5/2
f 9/9/3 10/10/3 11/11/3
f 11/11/3 12/12/3 9/9/3
f 13/13/4 14/14/4 15/15/4
f 15/15/4 16/16/4 13/13/4
f 6/17/5 5/18/5 12/19/5
f 12/19/5 11/20/5 6/17/5
f 4/21/6 3/22/6 9/23/6
f 4/21/6 9/23/6 12/24/6
f 4/21/6 12/24/6 5/25/6
f 4/21/6 5/25/6 8/26/6
f 4/21/6 8/26/6 15/27/6
f 15/27/6 14/28/6 4/21/6
f 14/29/7 13/30/7 1/31/7
f 1/31/7 4/32/7 14/29/7
f 2/33/8 10/34/8 9/35/8
f 9/35/8 3/36/8 2/33/8
f 7/37/9 16/38/9 15/39/9
f 15/39/9 8/40/9 7/37/9
f 10/41/10 2/42/10 1/43/10
f 10/41/10 1/43/10 13/44/10
f 10/41/10 13/44/10 16/45/10
f 10/41/10 16/45/10 7/46/10
f 10/41/10 7/46/10 6/47/10
f 6/47/10 11/48/10 10/41/10

